# 3ds Max Wavefront OBJ Exporter v0.97b - (c)2007 guruware
# File Created: 30.01.2016 20:26:57

mtllib Ouija_Board.mtl

#
# object NGon001
#

v  1.125835 1.812527 0.282710
v  2.132613 0.068738 0.282710
v  2.132561 0.068708 0.141355
v  1.125784 1.812497 0.141355
v  -1.006829 1.881295 0.282710
v  1.006725 1.881295 0.282710
v  1.006673 1.881266 0.141355
v  -1.006881 1.881266 0.141355
v  -2.129930 0.073565 0.282710
v  -1.125940 1.812527 0.282710
v  -1.125991 1.812497 0.141355
v  -2.127195 0.078362 0.141355
v  -1.120365 -1.812587 0.282710
v  -2.129929 -0.063971 0.282710
v  -2.127194 -0.059174 0.141355
v  -1.114843 -1.812617 0.141355
v  1.006726 -1.881355 0.282710
v  -1.001255 -1.881356 0.282710
v  -0.995733 -1.881385 0.141355
v  1.006674 -1.881385 0.141355
v  2.132613 -0.068798 0.282710
v  1.125836 -1.812587 0.282710
v  1.125785 -1.812617 0.141355
v  2.132561 -0.068828 0.141355
v  1.972319 0.068768 0.500000
v  1.045714 1.673694 0.500000
v  0.972719 1.547261 0.500000
v  1.826327 0.068768 0.500000
v  0.926604 1.742463 0.500000
v  -0.926604 1.742462 0.500000
v  -0.853608 1.616030 0.500000
v  0.853608 1.616030 0.500000
v  -1.045715 1.673694 0.500000
v  -1.972319 0.068768 0.500000
v  -1.826327 0.068768 0.500000
v  -0.972719 1.547261 0.500000
v  -1.972319 -0.068769 0.500000
v  -1.045714 -1.673694 0.500000
v  -0.972718 -1.547261 0.500000
v  -1.826327 -0.068769 0.500000
v  -0.926604 -1.742463 0.500000
v  0.926605 -1.742462 0.500000
v  0.853609 -1.616029 0.500000
v  -0.853608 -1.616030 0.500000
v  1.045715 -1.673694 0.500000
v  1.972319 -0.068768 0.500000
v  1.826327 -0.068768 0.500000
v  0.972719 -1.547261 0.500000
v  1.810228 0.068768 0.484605
v  0.964669 1.533320 0.484605
v  0.964669 1.533320 0.415395
v  1.810228 0.068768 0.415395
v  -0.845559 1.602088 0.484605
v  -0.845559 1.602088 0.415395
v  0.845559 1.602088 0.415395
v  0.845559 1.602088 0.484605
v  -0.964670 1.533319 0.484605
v  -1.810229 0.068768 0.484605
v  -1.810229 0.068768 0.415395
v  -0.964670 1.533319 0.415395
v  -1.810228 -0.068769 0.484605
v  -0.964669 -1.533320 0.484605
v  -0.964669 -1.533320 0.415395
v  -1.810228 -0.068769 0.415395
v  0.845560 -1.602087 0.484605
v  0.845560 -1.602087 0.415395
v  -0.845559 -1.602088 0.415395
v  -0.845559 -1.602088 0.484605
v  0.964670 -1.533319 0.484605
v  1.810229 -0.068768 0.484605
v  1.810229 -0.068768 0.415395
v  0.964670 -1.533319 0.415395
v  1.791639 0.068768 0.400000
v  0.955375 1.517221 0.400000
v  -0.836265 1.585989 0.400000
v  0.836264 1.585989 0.400000
v  -0.955375 1.517221 0.400000
v  -1.791640 0.068768 0.400000
v  -1.791639 -0.068769 0.400000
v  -0.955375 -1.517221 0.400000
v  0.836265 -1.585989 0.400000
v  -0.836264 -1.585989 0.400000
v  0.955376 -1.517220 0.400000
v  1.791640 -0.068768 0.400000
v  2.051726 0.068768 0.424064
v  1.085418 1.742463 0.424064
v  0.966308 1.811231 0.424064
v  -0.966308 1.811231 0.424064
v  -1.085418 1.742462 0.424064
v  -2.051726 0.068768 0.424064
v  -2.051726 -0.068769 0.424064
v  -1.085418 -1.742463 0.424064
v  -0.966308 -1.811231 0.424064
v  0.966309 -1.811230 0.424064
v  1.085419 -1.742462 0.424064
v  2.051726 -0.068768 0.424064
v  2.051726 0.068768 0.000000
v  1.085418 1.742463 0.000000
v  0.966308 1.811231 0.000000
v  -0.966308 1.811231 0.000000
v  -1.085418 1.742462 0.000000
v  -2.043677 0.082710 0.000000
v  -2.043677 -0.054827 0.000000
v  -1.069319 -1.742463 0.000000
v  -0.950209 -1.811231 0.000000
v  0.966309 -1.811230 0.000000
v  1.085419 -1.742462 0.000000
v  2.051726 -0.068768 0.000000
v  1.791639 0.068768 0.364792
v  0.955375 1.517221 0.364792
v  0.942600 1.504446 0.364792
v  1.774188 0.064092 0.364792
v  0.836264 1.585989 0.364792
v  0.831588 1.568538 0.364792
v  -0.836265 1.585989 0.364792
v  -0.831589 1.568538 0.364792
v  -0.955375 1.517221 0.364792
v  -0.942600 1.504446 0.364792
v  -1.791640 0.068768 0.364792
v  -1.774188 0.064092 0.364792
v  -1.791639 -0.068769 0.364792
v  -1.774188 -0.064093 0.364792
v  -0.955375 -1.517221 0.364792
v  -0.942599 -1.504446 0.364792
v  -0.836264 -1.585989 0.364792
v  -0.831588 -1.568538 0.364792
v  0.836265 -1.585989 0.364792
v  0.831589 -1.568538 0.364792
v  0.955376 -1.517220 0.364792
v  0.942600 -1.504445 0.364792
v  1.791640 -0.068768 0.364792
v  1.774188 -0.064092 0.364792
v  0.890884 1.421904 0.400000
v  1.676847 0.060576 0.400000
v  1.676847 -0.060576 0.400000
v  0.890885 -1.421904 0.400000
v  0.785964 -1.482480 0.400000
v  -0.785963 -1.482480 0.400000
v  -0.890884 -1.421904 0.400000
v  -1.676847 -0.060576 0.400000
v  -1.676847 0.060576 0.400000
v  -0.890884 1.421904 0.400000
v  -0.785963 1.482480 0.400000
v  0.785963 1.482480 0.400000
# 144 vertices

vn 0.681960 0.693402 0.232644
vn 0.941484 0.243894 0.232644
vn 0.941435 0.243854 -0.232887
vn 0.681901 0.693380 -0.232886
vn -0.259498 0.937243 0.232888
vn 0.259530 0.937274 0.232727
vn 0.259456 0.937252 -0.232899
vn -0.259581 0.937203 -0.232956
vn -0.943627 0.243239 0.224507
vn -0.681883 0.693341 0.233053
vn -0.681960 0.693289 -0.232983
vn -0.939116 0.244755 -0.241158
vn -0.685796 -0.696483 0.211176
vn -0.946069 -0.245677 0.211177
vn -0.936549 -0.241729 -0.253856
vn -0.677617 -0.690211 -0.253856
vn 0.259510 -0.937199 0.233052
vn -0.261162 -0.938825 0.224506
vn -0.257593 -0.935675 -0.241158
vn 0.259426 -0.937239 -0.232983
vn 0.969570 -0.176688 0.169457
vn 0.637826 -0.751252 0.169703
vn 0.681851 -0.693405 -0.232957
vn 0.941411 -0.243930 -0.232901
vn 0.425898 0.130925 0.895248
vn 0.326333 0.303376 0.895248
vn 0.000000 0.000000 1.000000
vn 0.099564 0.434301 0.895248
vn -0.099564 0.434301 0.895248
vn -0.326334 0.303376 0.895248
vn -0.425898 0.130925 0.895248
vn -0.425898 -0.130926 0.895248
vn -0.326333 -0.303376 0.895248
vn -0.099564 -0.434301 0.895248
vn 0.099564 -0.434301 0.895248
vn 0.326334 -0.303376 0.895248
vn 0.425898 -0.130925 0.895248
vn -0.965926 -0.258820 0.000000
vn -0.707107 -0.707107 0.000000
vn 0.258819 -0.965926 0.000000
vn -0.258819 -0.965926 0.000000
vn 0.707107 -0.707107 0.000000
vn 0.965926 -0.258818 0.000000
vn 0.965926 0.258820 0.000000
vn 0.707107 0.707107 0.000000
vn -0.258819 0.965926 0.000000
vn 0.258819 0.965926 0.000000
vn -0.707107 0.707107 0.000000
vn -0.965926 0.258818 0.000000
vn -0.866890 -0.248334 0.432240
vn -0.646809 -0.154361 0.746868
vn -0.457084 -0.482972 0.746869
vn -0.648508 -0.626582 0.432240
vn -0.189724 -0.637332 0.746869
vn 0.189724 -0.637332 0.746869
vn 0.218383 -0.874915 0.432241
vn -0.218382 -0.874915 0.432241
vn 0.648508 -0.626582 0.432240
vn 0.457083 -0.482972 0.746868
vn 0.646809 -0.154360 0.746868
vn 0.866891 -0.248333 0.432240
vn 0.866890 0.248334 0.432240
vn 0.646809 0.154361 0.746868
vn 0.457083 0.482972 0.746869
vn 0.648508 0.626582 0.432240
vn 0.189724 0.637332 0.746869
vn -0.189724 0.637332 0.746869
vn -0.218383 0.874915 0.432241
vn 0.218382 0.874915 0.432241
vn -0.648508 0.626582 0.432240
vn -0.457084 0.482972 0.746868
vn -0.646809 0.154360 0.746868
vn -0.866891 0.248333 0.432240
vn -0.690971 -0.212412 0.690971
vn -0.697117 -0.167501 0.697117
vn -0.493618 -0.519970 0.697117
vn -0.529439 -0.492193 0.690971
vn -0.203498 -0.687471 0.697117
vn 0.203498 -0.687471 0.697117
vn 0.161532 -0.704604 0.690971
vn -0.161532 -0.704604 0.690971
vn 0.529439 -0.492193 0.690971
vn 0.493618 -0.519970 0.697117
vn 0.697117 -0.167500 0.697117
vn 0.690971 -0.212411 0.690971
vn 0.690971 0.212412 0.690971
vn 0.697117 0.167501 0.697117
vn 0.493618 0.519970 0.697117
vn 0.529439 0.492193 0.690971
vn 0.203498 0.687471 0.697117
vn -0.203498 0.687471 0.697117
vn -0.161532 0.704604 0.690971
vn 0.161532 0.704604 0.690971
vn -0.529439 0.492193 0.690971
vn -0.493619 0.519970 0.697117
vn -0.697117 0.167500 0.697117
vn -0.690971 0.212411 0.690971
vn 0.788753 0.214243 0.576167
vn 0.579917 0.575960 0.576166
vn 0.208860 0.790166 0.576208
vn -0.208800 0.790144 0.576260
vn -0.579798 0.575901 0.576345
vn -0.791277 0.211978 0.573539
vn -0.794530 -0.218146 0.566687
vn -0.586185 -0.579011 0.566687
vn -0.212059 -0.791255 0.573538
vn 0.208846 -0.790070 0.576345
vn 0.479519 -0.615213 0.625759
vn 0.772627 -0.107658 0.625666
vn 0.849794 0.248958 -0.464617
vn 0.640502 0.611465 -0.464617
vn 0.209381 0.860309 -0.464788
vn -0.209169 0.860248 -0.464996
vn -0.640126 0.611308 -0.465340
vn -0.845589 0.252506 -0.470339
vn -0.841497 -0.242865 -0.482597
vn -0.631075 -0.607326 -0.482596
vn -0.204117 -0.858556 -0.470337
vn 0.209346 -0.860020 -0.465338
vn 0.782564 -0.451813 0.428320
vn 0.782565 -0.451814 0.428319
vn 0.782564 -0.451814 0.428319
vn 0.640413 -0.611270 -0.464995
vn 0.849740 -0.248825 -0.464789
vn 0.269538 0.246369 0.930941
vn 0.348131 0.110242 0.930941
vn 0.349917 0.083181 0.933080
vn 0.246995 0.261447 0.933080
vn 0.348131 -0.110242 0.930941
vn 0.349917 -0.083180 0.933080
vn 0.269538 -0.246369 0.930941
vn 0.246995 -0.261447 0.933080
vn 0.078593 -0.356611 0.930941
vn 0.102922 -0.344627 0.933080
vn -0.078593 -0.356611 0.930941
vn -0.102922 -0.344627 0.933080
vn -0.269538 -0.246369 0.930941
vn -0.246995 -0.261447 0.933080
vn -0.348131 -0.110242 0.930941
vn -0.349917 -0.083181 0.933080
vn -0.348131 0.110242 0.930941
vn -0.349917 0.083180 0.933080
vn -0.269538 0.246369 0.930941
vn -0.246995 0.261447 0.933080
vn -0.078593 0.356611 0.930941
vn -0.102922 0.344627 0.933080
vn 0.078593 0.356611 0.930941
vn 0.102922 0.344627 0.933080
vn 0.000000 0.000000 -1.000000
# 149 vertex normals

vt 0.462936 0.931696 0.000000
vt 0.590008 0.711590 0.000000
vt 0.601041 0.714576 0.000000
vt 0.471038 0.939756 0.000000
vt 0.193386 0.940572 0.000000
vt 0.447539 0.940564 0.000000
vt 0.450432 0.951630 0.000000
vt 0.190408 0.951587 0.000000
vt 0.051255 0.712250 0.000000
vt 0.178020 0.931656 0.000000
vt 0.169814 0.939635 0.000000
vt 0.040309 0.715738 0.000000
vt 0.178903 0.473848 0.000000
vt 0.051494 0.694538 0.000000
vt 0.040509 0.691965 0.000000
vt 0.171180 0.465626 0.000000
vt 0.447513 0.464868 0.000000
vt 0.194124 0.464792 0.000000
vt 0.191668 0.453568 0.000000
vt 0.450319 0.453770 0.000000
vt 0.589992 0.693821 0.000000
vt 0.462919 0.473712 0.000000
vt 0.470968 0.465627 0.000000
vt 0.601021 0.690793 0.000000
vt 0.566411 0.710660 0.000000
vt 0.450332 0.911720 0.000000
vt 0.443969 0.898592 0.000000
vt 0.551863 0.711714 0.000000
vt 0.436616 0.919640 0.000000
vt 0.204461 0.919672 0.000000
vt 0.212663 0.907587 0.000000
vt 0.428445 0.907566 0.000000
vt 0.190768 0.911766 0.000000
vt 0.074716 0.710744 0.000000
vt 0.089287 0.711768 0.000000
vt 0.197145 0.898639 0.000000
vt 0.074799 0.694925 0.000000
vt 0.190877 0.493841 0.000000
vt 0.197209 0.506960 0.000000
vt 0.089309 0.693843 0.000000
vt 0.204545 0.485879 0.000000
vt 0.436666 0.485853 0.000000
vt 0.428485 0.497943 0.000000
vt 0.212715 0.497968 0.000000
vt 0.450358 0.493759 0.000000
vt 0.566412 0.694822 0.000000
vt 0.551869 0.693782 0.000000
vt 0.443997 0.506902 0.000000
vt 0.552484 0.712421 0.000000
vt 0.444890 0.898775 0.000000
vt 0.441121 0.894998 0.000000
vt 0.547329 0.711047 0.000000
vt 0.212971 0.908475 0.000000
vt 0.214360 0.903317 0.000000
vt 0.426767 0.903298 0.000000
vt 0.428151 0.908451 0.000000
vt 0.196228 0.898819 0.000000
vt 0.088670 0.712456 0.000000
vt 0.093824 0.711072 0.000000
vt 0.200000 0.895034 0.000000
vt 0.088678 0.693124 0.000000
vt 0.196277 0.506773 0.000000
vt 0.200041 0.510545 0.000000
vt 0.093828 0.694493 0.000000
vt 0.428182 0.497056 0.000000
vt 0.426792 0.502214 0.000000
vt 0.214387 0.502233 0.000000
vt 0.213004 0.497081 0.000000
vt 0.444918 0.506724 0.000000
vt 0.552487 0.693087 0.000000
vt 0.547330 0.694467 0.000000
vt 0.441146 0.510507 0.000000
vt 0.547099 0.711609 0.000000
vt 0.441493 0.894517 0.000000
vt 0.214963 0.903391 0.000000
vt 0.426169 0.903377 0.000000
vt 0.199634 0.894544 0.000000
vt 0.094051 0.711626 0.000000
vt 0.094054 0.693927 0.000000
vt 0.199663 0.511021 0.000000
vt 0.426187 0.502140 0.000000
vt 0.214982 0.502153 0.000000
vt 0.441512 0.510994 0.000000
vt 0.547100 0.693910 0.000000
vt 0.575467 0.710404 0.000000
vt 0.454640 0.919694 0.000000
vt 0.441343 0.927357 0.000000
vt 0.199681 0.927400 0.000000
vt 0.186418 0.919720 0.000000
vt 0.065621 0.710485 0.000000
vt 0.065815 0.695198 0.000000
vt 0.186631 0.485911 0.000000
vt 0.199785 0.478125 0.000000
vt 0.441384 0.478111 0.000000
vt 0.454666 0.485757 0.000000
vt 0.575457 0.695056 0.000000
vt 0.616367 0.721209 0.000000
vt 0.484447 0.949712 0.000000
vt 0.452342 0.968229 0.000000
vt 0.188474 0.968165 0.000000
vt 0.156354 0.949569 0.000000
vt 0.025030 0.722812 0.000000
vt 0.024973 0.685594 0.000000
vt 0.157894 0.455358 0.000000
vt 0.190154 0.436799 0.000000
vt 0.452193 0.437147 0.000000
vt 0.484357 0.455664 0.000000
vt 0.616350 0.684146 0.000000
vt 0.544891 0.711020 0.000000
vt 0.439882 0.892899 0.000000
vt 0.439247 0.892243 0.000000
vt 0.544021 0.710790 0.000000
vt 0.425576 0.901169 0.000000
vt 0.425354 0.900309 0.000000
vt 0.215559 0.901176 0.000000
vt 0.215784 0.900312 0.000000
vt 0.201252 0.892914 0.000000
vt 0.201893 0.892249 0.000000
vt 0.096255 0.711032 0.000000
vt 0.097124 0.710798 0.000000
vt 0.096259 0.694514 0.000000
vt 0.097127 0.694742 0.000000
vt 0.201270 0.512635 0.000000
vt 0.201901 0.513289 0.000000
vt 0.215573 0.504361 0.000000
vt 0.215794 0.505222 0.000000
vt 0.425590 0.504354 0.000000
vt 0.425363 0.505219 0.000000
vt 0.439894 0.512620 0.000000
vt 0.439254 0.513282 0.000000
vt 0.544894 0.694502 0.000000
vt 0.544023 0.694734 0.000000
vt 0.432562 0.881714 0.000000
vt 0.531564 0.710291 0.000000
vt 0.531564 0.695237 0.000000
vt 0.432564 0.523814 0.000000
vt 0.419546 0.516248 0.000000
vt 0.221605 0.516250 0.000000
vt 0.208585 0.523817 0.000000
vt 0.109583 0.695240 0.000000
vt 0.109582 0.710294 0.000000
vt 0.208582 0.881717 0.000000
vt 0.221601 0.889283 0.000000
vt 0.419542 0.889281 0.000000
vt 0.582871 0.035974 0.000000
vt 0.841201 0.035979 0.000000
vt 0.857122 0.045171 0.000000
vt 0.437780 0.268883 0.000000
vt 0.985207 0.267030 0.000000
vt 0.985206 0.285415 0.000000
vt 0.839040 0.520188 0.000000
vt 0.854961 0.510996 0.000000
vt 0.582862 0.520183 0.000000
vt 0.566941 0.510991 0.000000
vt 0.437780 0.287268 0.000000
vt 0.566950 0.045166 0.000000
# 156 texture coords

g NGon001
usemtl Material__48
s 1
f 1/1/1 2/2/2 3/3/3 4/4/4 
f 5/5/5 6/6/6 7/7/7 8/8/8 
f 9/9/9 10/10/10 11/11/11 12/12/12 
f 13/13/13 14/14/14 15/15/15 16/16/16 
f 17/17/17 18/18/18 19/19/19 20/20/20 
f 21/21/21 22/22/22 23/23/23 24/24/24 
f 25/25/25 26/26/26 27/27/27 28/28/27 
f 29/29/28 30/30/29 31/31/27 32/32/27 
f 33/33/30 34/34/31 35/35/27 36/36/27 
f 37/37/32 38/38/33 39/39/27 40/40/27 
f 41/41/34 42/42/35 43/43/27 44/44/27 
f 45/45/36 46/46/37 47/47/27 48/48/27 
f 49/49/38 50/50/39 51/51/39 52/52/38 
f 53/53/40 54/54/40 55/55/41 56/56/41 
f 57/57/42 58/58/43 59/59/43 60/60/42 
f 61/61/44 62/62/45 63/63/45 64/64/44 
f 65/65/46 66/66/46 67/67/47 68/68/47 
f 69/69/48 70/70/49 71/71/49 72/72/48 
s 2
f 73/73/50 52/52/51 51/51/52 74/74/53 
f 55/55/54 54/54/55 75/75/56 76/76/57 
f 77/77/58 60/60/59 59/59/60 78/78/61 
f 79/79/62 64/64/63 63/63/64 80/80/65 
f 67/67/66 66/66/67 81/81/68 82/82/69 
f 83/83/70 72/72/71 71/71/72 84/84/73 
f 49/49/74 28/28/75 27/27/76 50/50/77 
f 32/32/78 31/31/79 53/53/80 56/56/81 
f 57/57/82 36/36/83 35/35/84 58/58/85 
f 61/61/86 40/40/87 39/39/88 62/62/89 
f 44/44/90 43/43/91 65/65/92 68/68/93 
f 69/69/94 48/48/95 47/47/96 70/70/97 
s 1
f 25/25/25 85/85/98 86/86/99 26/26/26 
f 87/87/100 88/88/101 30/30/29 29/29/28 
f 33/33/30 89/89/102 90/90/103 34/34/31 
f 37/37/32 91/91/104 92/92/105 38/38/33 
f 93/93/106 94/94/107 42/42/35 41/41/34 
f 45/45/36 95/95/108 96/96/109 46/46/37 
f 86/86/99 85/85/98 2/2/2 1/1/1 
f 97/97/110 98/98/111 4/4/4 3/3/3 
f 5/5/5 88/88/101 87/87/100 6/6/6 
f 7/7/7 99/99/112 100/100/113 8/8/8 
f 90/90/103 89/89/102 10/10/10 9/9/9 
f 101/101/114 102/102/115 12/12/12 11/11/11 
f 92/92/105 91/91/104 14/14/14 13/13/13 
f 103/103/116 104/104/117 16/16/16 15/15/15 
f 17/17/17 94/94/107 93/93/106 18/18/18 
f 19/19/19 105/105/118 106/106/119 20/20/20 
s 2
f 96/96/120 95/95/121 22/22/122 21/21/120 
s 1
f 107/107/123 108/108/124 24/24/24 23/23/23 
f 98/98/111 99/99/112 7/7/7 4/4/4 
f 85/85/98 96/96/109 21/21/21 2/2/2 
f 100/100/113 101/101/114 11/11/11 8/8/8 
f 102/102/115 103/103/116 15/15/15 12/12/12 
f 104/104/117 105/105/118 19/19/19 16/16/16 
f 106/106/119 107/107/123 23/23/23 20/20/20 
f 46/46/37 25/25/25 28/28/27 47/47/27 
f 26/26/26 29/29/28 32/32/27 27/27/27 
f 30/30/29 33/33/30 36/36/27 31/31/27 
f 34/34/31 37/37/32 40/40/27 35/35/27 
f 38/38/33 41/41/34 44/44/27 39/39/27 
f 42/42/35 45/45/36 48/48/27 43/43/27 
f 70/70/49 49/49/38 52/52/38 71/71/49 
f 50/50/39 56/56/41 55/55/41 51/51/39 
f 53/53/40 57/57/42 60/60/42 54/54/40 
f 58/58/43 61/61/44 64/64/44 59/59/43 
f 62/62/45 68/68/47 67/67/47 63/63/45 
f 65/65/46 69/69/48 72/72/48 66/66/46 
s 2
f 73/73/50 84/84/73 71/71/72 52/52/51 
f 76/76/57 74/74/53 51/51/52 55/55/54 
f 77/77/58 75/75/56 54/54/55 60/60/59 
f 79/79/62 78/78/61 59/59/60 64/64/63 
f 82/82/69 80/80/65 63/63/64 67/67/66 
f 83/83/70 81/81/68 66/66/67 72/72/71 
f 49/49/74 70/70/97 47/47/96 28/28/75 
f 56/56/81 50/50/77 27/27/76 32/32/78 
f 57/57/82 53/53/80 31/31/79 36/36/83 
f 61/61/86 58/58/85 35/35/84 40/40/87 
f 68/68/93 62/62/89 39/39/88 44/44/90 
f 69/69/94 65/65/92 43/43/91 48/48/95 
s 1
f 25/25/25 46/46/37 96/96/109 85/85/98 
f 29/29/28 26/26/26 86/86/99 87/87/100 
f 33/33/30 30/30/29 88/88/101 89/89/102 
f 37/37/32 34/34/31 90/90/103 91/91/104 
f 41/41/34 38/38/33 92/92/105 93/93/106 
f 45/45/36 42/42/35 94/94/107 95/95/108 
f 4/4/4 7/7/7 6/6/6 1/1/1 
f 1/1/1 6/6/6 87/87/100 86/86/99 
f 2/2/2 21/21/21 24/24/24 3/3/3 
f 3/3/3 24/24/24 108/108/124 97/97/110 
f 8/8/8 11/11/11 10/10/10 5/5/5 
f 5/5/5 10/10/10 89/89/102 88/88/101 
f 12/12/12 15/15/15 14/14/14 9/9/9 
f 9/9/9 14/14/14 91/91/104 90/90/103 
f 16/16/16 19/19/19 18/18/18 13/13/13 
f 13/13/13 18/18/18 93/93/106 92/92/105 
f 20/20/20 23/23/23 22/22/22 17/17/17 
f 17/17/17 22/22/22 95/95/108 94/94/107 
f 109/109/27 110/110/27 111/111/27 112/112/27 
f 110/110/27 113/113/27 114/114/27 111/111/27 
f 115/115/27 116/116/27 114/114/27 113/113/27 
f 115/115/27 117/117/27 118/118/27 116/116/27 
f 117/117/27 119/119/27 120/120/27 118/118/27 
f 119/119/27 121/121/27 122/122/27 120/120/27 
f 121/121/27 123/123/27 124/124/27 122/122/27 
f 123/123/27 125/125/27 126/126/27 124/124/27 
f 127/127/27 128/128/27 126/126/27 125/125/27 
f 127/127/27 129/129/27 130/130/27 128/128/27 
f 129/129/27 131/131/27 132/132/27 130/130/27 
f 131/131/27 109/109/27 112/112/27 132/132/27 
s 2
f 73/73/50 74/74/53 110/110/39 109/109/38 
f 74/74/53 76/76/57 113/113/41 110/110/39 
f 76/76/57 75/75/56 115/115/40 113/113/41 
f 75/75/56 77/77/58 117/117/42 115/115/40 
f 77/77/58 78/78/61 119/119/43 117/117/42 
f 78/78/61 79/79/62 121/121/44 119/119/43 
f 79/79/62 80/80/65 123/123/45 121/121/44 
f 80/80/65 82/82/69 125/125/47 123/123/45 
f 82/82/69 81/81/68 127/127/46 125/125/47 
f 81/81/68 83/83/70 129/129/48 127/127/46 
f 83/83/70 84/84/73 131/131/49 129/129/48 
f 84/84/73 73/73/50 109/109/38 131/131/49 
s 4
f 133/133/125 134/134/126 112/112/127 111/111/128 
f 134/134/126 135/135/129 132/132/130 112/112/127 
f 135/135/129 136/136/131 130/130/132 132/132/130 
f 136/136/131 137/137/133 128/128/134 130/130/132 
f 137/137/133 138/138/135 126/126/136 128/128/134 
f 138/138/135 139/139/137 124/124/138 126/126/136 
f 139/139/137 140/140/139 122/122/140 124/124/138 
f 140/140/139 141/141/141 120/120/142 122/122/140 
f 141/141/141 142/142/143 118/118/144 120/120/142 
f 142/142/143 143/143/145 116/116/146 118/118/144 
f 143/143/145 144/144/147 114/114/148 116/116/146 
f 144/144/147 133/133/125 111/111/128 114/114/148 
s 2
f 140/140/27 139/139/27 138/138/27 142/142/27 
f 138/138/27 137/137/27 136/136/27 142/142/27 
f 136/136/27 135/135/27 134/134/27 144/144/27 
f 134/134/27 133/133/27 144/144/27 
f 144/144/27 143/143/27 142/142/27 136/136/27 
f 140/140/27 142/142/27 141/141/27 
s off
f 108/145/149 107/146/149 106/147/149 98/148/149 
f 106/147/149 105/149/149 104/150/149 102/151/149 
f 104/150/149 103/152/149 102/151/149 
f 102/151/149 101/153/149 100/154/149 98/148/149 
f 100/154/149 99/155/149 98/148/149 
f 106/147/149 102/151/149 98/148/149 
f 97/156/149 108/145/149 98/148/149 
# 139 polygons - 6 triangles

